<svg width="144" height="46" viewBox="0 0 144 46" fill="none" xmlns="http://www.w3.org/2000/svg">
<mask id="mask0_285_15" style="mask-type:luminance" maskUnits="userSpaceOnUse" x="0" y="9" width="28" height="28">
<path d="M28 9.5H0V36.5H28V9.5Z" fill="white"/>
</mask>
<g mask="url(#mask0_285_15)">
<path d="M0 23.9995C0 30.9031 5.59644 36.4995 12.5 36.4995C18.7765 36.4995 23.9726 31.8735 24.8647 25.845C24.9411 25.3288 24.332 25.0129 23.8852 25.2825C22.6049 26.055 21.1043 26.4995 19.5 26.4995C14.8056 26.4995 11 22.6939 11 17.9995C11 15.9273 11.7415 14.0283 12.9737 12.5534C13.3084 12.1526 13.0889 11.5024 12.5667 11.4997L12.5 11.4995C5.59644 11.4995 0 17.096 0 23.9995Z" fill="#868E96"/>
<path d="M28.0718 18C28.0718 13.3056 24.2662 9.5 19.5718 9.5C17.9299 9.5 16.3968 9.96552 15.0971 10.7718C14.6534 11.047 14.8359 11.694 15.3448 11.8109C20.647 13.0293 24.6394 17.7069 25.0385 23.1268C25.0769 23.6472 25.6881 23.9255 26.0277 23.5293C27.302 22.0429 28.0718 20.1114 28.0718 18Z" fill="#868E96"/>
</g>
<path d="M45.3068 32.3201C43.689 32.3201 42.2757 31.9823 41.0668 31.3068C39.8579 30.6134 38.9157 29.6445 38.2401 28.4001C37.5823 27.1557 37.2534 25.689 37.2534 24.0001C37.2534 22.3112 37.5823 20.8445 38.2401 19.6001C38.8979 18.3557 39.8312 17.3957 41.0401 16.7201C42.249 16.0268 43.6712 15.6801 45.3068 15.6801C47.2623 15.6801 48.889 16.169 50.1868 17.1468C51.5023 18.1068 52.3645 19.4934 52.7734 21.3068H49.7601C49.4579 20.2757 48.9334 19.5201 48.1868 19.0401C47.4579 18.5423 46.4979 18.2934 45.3068 18.2934C43.7245 18.2934 42.4801 18.7912 41.5734 19.7868C40.6845 20.7823 40.2401 22.1868 40.2401 24.0001C40.2401 25.7957 40.6845 27.2001 41.5734 28.2134C42.4801 29.209 43.7245 29.7068 45.3068 29.7068C47.7779 29.7068 49.2979 28.6134 49.8668 26.4268H52.8801C52.489 28.329 51.6357 29.7868 50.3201 30.8001C49.0045 31.8134 47.3334 32.3201 45.3068 32.3201ZM62.8105 32.3201C61.1572 32.3201 59.7083 31.9823 58.4638 31.3068C57.2372 30.6134 56.2861 29.6445 55.6105 28.4001C54.935 27.1557 54.5972 25.689 54.5972 24.0001C54.5972 22.3112 54.935 20.8445 55.6105 19.6001C56.2861 18.3557 57.2372 17.3957 58.4638 16.7201C59.7083 16.0268 61.1572 15.6801 62.8105 15.6801C64.5172 15.6801 65.975 16.0179 67.1839 16.6934C68.4105 17.369 69.3527 18.329 70.0105 19.5734C70.6861 20.8179 71.0239 22.2934 71.0239 24.0001C71.0239 25.689 70.6861 27.1645 70.0105 28.4268C69.3527 29.6712 68.4105 30.6312 67.1839 31.3068C65.9572 31.9823 64.4994 32.3201 62.8105 32.3201ZM62.8105 29.7068C64.4639 29.7068 65.7439 29.209 66.6505 28.2134C67.575 27.2001 68.0372 25.7957 68.0372 24.0001C68.0372 22.1868 67.575 20.7823 66.6505 19.7868C65.7439 18.7912 64.4639 18.2934 62.8105 18.2934C61.175 18.2934 59.895 18.8001 58.9705 19.8134C58.0461 20.809 57.5839 22.2045 57.5839 24.0001C57.5839 25.7957 58.0461 27.2001 58.9705 28.2134C59.895 29.209 61.175 29.7068 62.8105 29.7068ZM80.6547 32.3201C78.4325 32.3201 76.6814 31.8579 75.4014 30.9334C74.1214 30.009 73.4191 28.7201 73.2947 27.0668H76.2547C76.3791 28.0445 76.8058 28.7645 77.5347 29.2268C78.2636 29.689 79.3391 29.9201 80.7614 29.9201C83.2502 29.9201 84.4947 29.1379 84.4947 27.5734C84.4947 26.9334 84.2991 26.4445 83.908 26.1068C83.5347 25.7512 82.8947 25.4934 81.988 25.3334L78.4947 24.6934C75.5258 24.1423 74.0413 22.729 74.0413 20.4534C74.0413 18.9779 74.6014 17.8134 75.7214 16.9601C76.8413 16.1068 78.3702 15.6801 80.308 15.6801C82.3169 15.6801 83.908 16.1157 85.0814 16.9868C86.2725 17.8579 86.948 19.0845 87.108 20.6668H84.2014C84.0236 19.7779 83.6058 19.1201 82.948 18.6934C82.308 18.2668 81.4014 18.0534 80.228 18.0534C79.1436 18.0534 78.2991 18.2401 77.6947 18.6134C77.108 18.9868 76.8147 19.529 76.8147 20.2401C76.8147 20.7912 77.0013 21.2268 77.3747 21.5468C77.7658 21.849 78.388 22.0801 79.2414 22.2401L82.7347 22.9068C84.2991 23.1912 85.4458 23.6979 86.1747 24.4268C86.9036 25.1557 87.268 26.1334 87.268 27.3601C87.268 28.9245 86.6991 30.1423 85.5614 31.0134C84.4236 31.8845 82.788 32.3201 80.6547 32.3201ZM91.0722 32.0001V19.0934H89.5255V16.0001H92.7255V18.4534H94.0055C94.4677 17.5645 95.1344 16.889 96.0055 16.4268C96.8944 15.9468 97.9611 15.7068 99.2055 15.7068C100.468 15.7068 101.534 15.9557 102.405 16.4534C103.294 16.9512 104.005 17.7157 104.539 18.7468H104.619C105.739 16.7201 107.579 15.7068 110.139 15.7068C112.112 15.7068 113.65 16.2757 114.752 17.4134C115.854 18.5512 116.405 20.1157 116.405 22.1068V32.0001H113.419V22.5334C113.419 19.7245 112.05 18.3201 109.312 18.3201C106.592 18.3201 105.232 19.7245 105.232 22.5334V32.0001H102.245V22.5334C102.245 19.7245 100.877 18.3201 98.1389 18.3201C96.8055 18.3201 95.7922 18.6845 95.0989 19.4134C94.4055 20.1245 94.0589 21.1645 94.0589 22.5334V32.0001H91.0722ZM120.789 32.0001V16.0001H123.775V32.0001H120.789ZM122.282 13.8134C121.784 13.8134 121.358 13.6357 121.002 13.2801C120.647 12.9245 120.469 12.4979 120.469 12.0001C120.469 11.5023 120.647 11.0757 121.002 10.7201C121.358 10.3645 121.784 10.1868 122.282 10.1868C122.78 10.1868 123.207 10.3645 123.562 10.7201C123.918 11.0757 124.095 11.5023 124.095 12.0001C124.095 12.4979 123.918 12.9245 123.562 13.2801C123.207 13.6357 122.78 13.8134 122.282 13.8134ZM128.254 32.0001V9.6001H131.24V23.2001H131.347L139.054 16.0001H142.707L135.374 22.6134L143.32 32.0001H139.694L133.347 24.4534L131.24 26.1601V32.0001H128.254Z" fill="#868E96"/>
</svg>
