<svg width="96" height="93" viewBox="0 0 96 93" fill="none" xmlns="http://www.w3.org/2000/svg">
<g clip-path="url(#clip0_214_1001)">
<path d="M63.3178 92.8494L63.0597 92.6989L62.2558 92.6565L61.4519 92.6146L60.3545 92.5107L59.2572 92.4068V92.3009V92.1951L58.443 92.0345L57.6289 91.8739L56.9618 91.5528L56.2947 91.2318L56.2892 91.0665L56.2836 90.9011L55.2231 90.3268L54.1626 89.7525L53.0638 88.9399L51.965 88.1274L50.9221 87.1206L49.8791 86.1138L48.9998 84.9765L48.1205 83.8392L47.443 82.7018L46.7654 81.5645L46.712 81.507L46.6587 81.4494L46.0937 82.0939L45.5286 82.7385L44.6406 83.5946L43.7526 84.4508L43.0123 85.0344L42.272 85.618L41.2671 86.2707L40.2622 86.9234L39.2712 87.3843L38.2802 87.8452L38.3013 87.9747L38.3224 88.1042L37.6392 88.2879L36.956 88.4717L35.6109 88.8756L34.2657 89.2794L33.5578 89.4594L32.8498 89.6396L31.2923 89.7435L29.7348 89.8475L28.3188 89.7071L26.9029 89.5667L26.754 89.4456L26.605 89.3246L26.2989 89.405L25.9927 89.4853L25.7917 89.2835L25.5911 89.0815L24.7603 88.8968L23.9297 88.7121L22.7472 88.2989L21.5647 87.8857L20.2693 87.2339L18.9739 86.5822L17.6722 85.6713L16.3704 84.7604L15.1578 83.6079L13.9452 82.4554L13.0523 81.299L12.1594 80.1427L11.6532 79.2897L11.1471 78.4367L10.7241 77.5837L10.3011 76.7307L9.80083 75.3801L9.30052 74.0295L8.96906 72.4656L8.63759 70.9018L8.63937 68.1295L8.64115 65.3573L8.89719 64.0829L9.15322 62.8086L9.58554 61.4529L10.0179 60.0971L10.6454 58.8212L11.2729 57.5453L11.5518 57.0921L11.8308 56.6389L11.4375 56.3676L11.0442 56.0963L10.3363 55.6914L9.62831 55.2865L8.56636 54.5046L7.50441 53.7227L6.46025 52.716L5.41608 51.7092L4.66568 50.7707L3.91529 49.8322L3.28086 48.8475L2.64643 47.8628L2.1315 46.8005L1.61657 45.7382L1.1373 44.3876L0.658038 43.037L0.329023 41.4732L0 39.9093L0.00830731 37.1371L0.0166146 34.3648L0.412022 32.6622L0.80743 30.9596L1.33435 29.5953L1.86128 28.231L2.52633 27.0059L3.19142 25.7808L4.06122 24.5994L4.93102 23.4179L5.93456 22.3695L6.9381 21.3211L7.85846 20.5818L8.77881 19.8424L9.69916 19.2388L10.6195 18.6353L11.8968 18.0151L13.1742 17.395L13.8791 17.1339L14.5841 16.8729L15.2921 15.5247L16 14.1766L16.846 12.9684L17.692 11.7602L18.9415 10.4595L20.1911 9.15875L21.2106 8.37808L22.2301 7.5974L23.4419 6.8816L24.6538 6.16581L25.9117 5.64298L27.1696 5.12016L28.0045 4.85234L28.8394 4.58452L30.4197 4.26811L32 3.9517L34.3363 3.96333L36.6726 3.97496L38.4425 4.34439L40.2124 4.71383L41.4159 5.15557L42.6195 5.59731L43.9325 6.25505L45.2455 6.91278L46.198 5.98697L47.1504 5.06116L47.7876 4.55898L48.4248 4.05679L49.0619 3.64845L49.6991 3.24011L50.2655 2.91114L50.8318 2.58217L51.7522 2.14659L52.6726 1.711L53.7345 1.31644L54.7964 0.921877L56.0708 0.628125L57.3451 0.334321L58.761 0.167163L60.177 0L61.8761 0.0952094L63.5752 0.190423L64.9911 0.474844L66.407 0.759265L67.5398 1.12956L68.6725 1.49986L69.8073 2.02342L70.9421 2.54698L71.89 3.12517L72.8378 3.70336L73.8702 4.48469L74.9026 5.266L76.0597 6.45187L77.2169 7.63774L77.8207 8.41357L78.4246 9.18941L78.9631 10.0485L79.5017 10.9076L80.1176 12.1871L80.7335 13.4666L81.1079 14.5364L81.4824 15.6063L81.7589 16.9325L82.0354 18.2588L82.0796 18.2911L82.1238 18.3234L83.8937 19.1919L85.6637 20.0605L86.8954 20.924L88.1271 21.7876L89.3596 22.9584L90.5921 24.1292L91.3383 25.0677L92.0846 26.0062L92.7473 27.0348L93.41 28.0634L94.0178 29.3661L94.6257 30.6689L94.9827 31.7351L95.3398 32.8014L95.6699 34.3652L96 35.9291L95.9975 38.5592L95.9951 41.1892L95.7419 42.4508L95.4887 43.7124L95.1287 44.8677L94.7687 46.0229L94.2801 47.1472L93.7916 48.2715L93.208 49.2797L92.6245 50.288L91.8666 51.3216L91.1087 52.3552L90.0942 53.4275L89.0797 54.4998L87.938 55.3914L86.7964 56.283L85.5221 57.033L84.2477 57.7829L84.0747 57.9236L83.9017 58.0643L84.1262 58.5833L84.3506 59.1023L84.698 59.9553L85.0453 60.8083L85.8005 63.7227L86.5557 66.6372L86.8151 67.8456L87.0746 69.054L87.0675 71.7552L87.0603 74.4564L86.7415 75.9491L86.4228 77.4419L86.0646 78.5081L85.7064 79.5744L84.9487 81.1382L84.191 82.7021L83.3029 83.9816L82.4148 85.2611L81.2066 86.5209L79.9984 87.7808L78.8656 88.6625L77.7329 89.5443L76.8569 90.0732L75.9808 90.6021L75.0161 91.0284L74.0515 91.4548L73.6975 91.6439L73.3435 91.833L72.3523 92.1226L71.3612 92.4122L70.0796 92.6416L68.7979 92.8709L67.6725 92.8589L66.547 92.847L66.2639 92.8346L65.9807 92.8222L65.2728 92.809L64.5648 92.7958L64.0692 92.8979L63.5736 93L63.3178 92.8494ZM45.5282 71.4722L46.3832 71.4027L47.2054 71.1317L48.0276 70.8607L49.0002 70.3897L49.9728 69.9187L51.0651 69.0923L52.1574 68.2659L53.07 67.2381L53.9826 66.2104L54.8548 65.073L55.727 63.9357L56.4773 62.7984L57.2277 61.661L58.0817 60.1683L58.9357 58.6755L59.4684 57.4288L60.0012 56.1821L60.1151 56.1114L60.2289 56.0407L61.014 57.0881L61.7991 58.1355L62.4502 58.7381L63.1014 59.3407L63.9049 59.7114L64.7085 60.082L65.912 60.1388L67.1156 60.1956L67.9651 59.8749L68.8147 59.5543L69.613 58.7366L70.4114 57.9188L70.7792 56.8044L71.147 55.69L71.3764 54.4816L71.6058 53.2732L71.5331 51.5672L71.4605 49.8612L71.1559 48.159L70.8514 46.4568L70.5091 45.1735L70.1668 43.8902L69.6053 42.2825L69.0439 40.6748L68.3812 39.4392L67.7185 38.2035L67.2514 37.5637L66.7843 36.924L66.2893 36.4456L65.7944 35.9672L65.8691 35.2372L65.9438 34.5071L65.7 33.5119L65.4562 32.5168L64.9234 31.3794L64.3905 30.2421L63.663 29.4356L62.9354 28.629L62.2459 28.1207L61.5564 27.6125L60.7433 28.1041L59.9303 28.5956L58.8677 28.833L57.805 29.0704L56.9861 28.9845L56.1672 28.8985L55.2322 28.5451L54.2972 28.1917L53.8258 27.8308L53.3545 27.4698H53.1976H53.0406L52.8205 27.9355L52.6004 28.4012L51.9687 29.1263L51.337 29.8513L50.66 30.2844L49.983 30.7176L49.1026 31.0129L48.2221 31.3084H47.107H45.992L45.2141 31.0396L44.4362 30.7709L43.9857 30.537L43.5352 30.303L42.5803 29.4195L41.6254 28.536L41.2448 28.1979L40.8641 27.8598L39.9933 28.6511L39.1224 29.4423L38.4642 29.7556L37.806 30.0688L37.098 30.2604L36.3901 30.452L35.5177 30.4537L34.6454 30.4554L33.7507 30.1758L32.8559 29.8962L32.4517 30.2824L32.0476 30.6687L31.5668 31.3236L31.0861 31.9784L30.4106 32.2311L29.7352 32.4837L29.2766 32.8262L28.8179 33.1687L28.3825 33.6246L27.947 34.0807L26.5333 36.1928L25.1196 38.3049L24.2601 40.1024L23.4005 41.8999L22.5184 43.748L21.6363 45.5962L21.0555 46.9468L20.4747 48.2974L20.2539 49.1766L20.0331 50.0559L19.9699 50.8827L19.9067 51.7094L20.0432 52.6801L20.1798 53.6509L20.5629 54.4366L20.9461 55.2223L21.5176 55.7227L22.0891 56.2231L22.8346 56.5722L23.5801 56.9213L24.6753 56.9293L25.7706 56.9373L26.6908 56.5468L27.611 56.1563L28.0359 55.8525L28.4608 55.5487L29.9249 54.3748L31.3891 53.201L31.4958 53.2671L31.6025 53.3333L31.6965 55.1987L31.7905 57.064L32.142 59.1146L32.4935 61.1653L32.8476 62.6214L33.2017 64.0776L33.7252 65.286L34.2486 66.4944L34.6673 67.1341L35.0859 67.7739L35.5256 68.2485L35.9652 68.7231L37.098 69.5448L38.2307 70.3665L38.8056 70.6587L39.3804 70.9509L40.2352 71.1733L41.09 71.3957L42.0674 71.5186L43.0449 71.6414L43.859 71.5915L44.6732 71.5415L45.5282 71.4722ZM48.2596 57.4967L47.8107 57.2538L47.3882 56.7183L46.9657 56.1827L46.7904 55.4486L46.615 54.7145L46.7112 52.5011L46.8074 50.2876L46.9472 48.5816L47.087 46.8756L47.3746 45.3829L47.6621 43.8901L47.8777 43.0456L48.0933 42.2012L48.3615 41.6733L48.6297 41.1454L49.1568 40.7092L49.6839 40.273L50.4298 40.1054L51.1758 39.9377L51.8538 40.1962L52.5318 40.4547L52.9867 40.9505L53.4416 41.4463L53.6063 42.1854L53.7711 42.9244L53.3284 44.7619L52.8858 46.5993L52.7512 47.6616L52.6166 48.7239L52.458 51.9937L52.2993 55.2636L52.1489 55.8694L51.9985 56.4753L51.5572 56.9171L51.1159 57.3588L50.6603 57.5552L50.2046 57.7515L49.4567 57.7451L48.7088 57.7387L48.2596 57.4967ZM37.0815 56.0657L36.4987 55.792L36.1484 55.3145L35.7981 54.837L35.6446 54.4105L35.491 53.984L35.402 53.4447L35.3129 52.9055L35.1857 51.0279L35.0586 49.1503L35.2026 47.3732L35.3467 45.5961L35.5412 44.736L35.7356 43.8759L36.0384 43.0633L36.3412 42.2508L36.7137 41.8062L37.0862 41.3617L37.6584 41.1008L38.2306 40.8398H38.797H39.3634L39.9298 41.103L40.4961 41.3662L40.8662 41.7751L41.2364 42.184L41.3972 42.6673L41.5581 43.1505V43.7598V44.3691L41.4249 44.7209L41.2917 45.0727L41.0651 46.1742L40.8386 47.2757L40.8394 48.9949L40.8402 50.714L41.0111 52.283L41.1821 53.852L40.8164 54.6539L40.4507 55.4559L39.8589 55.8491L39.2672 56.2423L38.4658 56.2907L37.6645 56.3392L37.0815 56.0657Z" fill="#828282"/>
</g>
<defs>
<clipPath id="clip0_214_1001">
<rect width="96" height="93" fill="white"/>
</clipPath>
</defs>
</svg>
